<?xml version="1.0" standalone="no"?>
<!DOCTYPE svg PUBLIC "-//W3C//DTD SVG 20010904//EN"
 "http://www.w3.org/TR/2001/REC-SVG-20010904/DTD/svg10.dtd">
<svg version="1.0" xmlns="http://www.w3.org/2000/svg"
 width="225.000000pt" height="225.000000pt" viewBox="0 0 225.000000 225.000000"
 preserveAspectRatio="xMidYMid meet">
<metadata>
Created by potrace 1.14, written by Peter Selinger 2001-2017
</metadata>
<g transform="translate(0.000000,225.000000) scale(0.100000,-0.100000)"
fill="#000000" stroke="none">
<path d="M0 1125 l0 -1125 1125 0 1125 0 0 1125 0 1125 -1125 0 -1125 0 0
-1125z m599 1048 c42 -7 108 -71 168 -163 97 -149 167 -227 209 -232 16 -2 28
-7 26 -12 -6 -17 45 -33 84 -26 37 7 36 9 -6 23 -31 11 87 7 120 -4 19 -6 85
-12 145 -14 137 -3 214 -14 192 -27 -9 -5 -34 -4 -59 2 -94 21 -168 8 -168
-31 0 -15 59 -109 69 -109 4 0 13 6 20 13 10 10 12 9 11 -3 -6 -42 0 -52 25
-46 15 4 25 2 25 -4 0 -6 16 -20 35 -31 28 -17 33 -24 24 -35 -14 -17 4 -44
30 -45 10 0 12 -2 3 -6 -6 -2 -10 -8 -7 -13 3 -4 -12 -11 -33 -15 -20 -3 -60
-17 -87 -29 -53 -24 -82 -66 -104 -149 -8 -33 -7 -41 10 -58 10 -10 19 -24 19
-29 0 -6 15 -10 33 -9 17 0 66 -2 109 -6 70 -6 81 -5 128 19 l52 26 -4 -35
c-3 -23 0 -35 8 -35 7 0 19 -8 26 -18 7 -10 28 -27 46 -37 27 -16 36 -17 52
-7 27 17 27 17 48 -31 10 -23 36 -60 56 -82 25 -28 36 -47 33 -62 -6 -35 36
-31 62 6 33 46 28 125 -14 246 -19 55 -35 112 -35 126 0 20 -7 30 -30 39 -31
13 -32 22 -12 73 11 25 23 33 47 27 6 -1 16 -3 23 -3 18 -1 15 -14 -5 -26 -15
-9 -16 -10 -2 -11 25 0 60 90 58 155 l0 30 -16 -32 c-15 -31 -33 -44 -33 -25
0 5 11 37 25 72 26 67 45 95 45 69 1 -25 28 44 45 116 25 101 31 240 12 293
-16 45 -10 53 17 23 34 -38 42 -120 23 -265 -16 -134 -32 -196 -68 -272 -10
-22 -19 -58 -19 -80 0 -54 -17 -110 -47 -155 -23 -35 -24 -42 -13 -68 6 -16 9
-43 6 -58 -5 -21 2 -48 26 -99 27 -57 32 -80 32 -136 -1 -40 -7 -74 -14 -83
-7 -9 -15 -44 -16 -78 -5 -94 -8 -105 -38 -136 -16 -16 -25 -34 -21 -41 6 -10
-19 -42 -114 -146 -16 -17 -34 -41 -40 -53 -7 -11 -16 -21 -21 -21 -6 0 -28
-13 -50 -29 -35 -25 -95 -53 -210 -96 -19 -8 -62 -16 -95 -19 l-60 -5 62 16
c40 10 60 20 55 27 -3 6 -5 19 -4 29 3 13 -2 17 -14 15 -29 -5 -26 16 4 30 16
6 35 27 43 45 10 24 20 32 39 32 19 0 26 6 28 24 3 19 6 21 13 10 7 -12 10
-12 18 -1 4 8 11 13 15 13 25 -4 35 2 40 24 4 16 13 25 26 25 11 0 20 7 20 15
0 8 7 15 15 15 8 0 15 9 15 21 0 11 5 17 10 14 6 -3 10 1 10 9 0 8 -4 18 -10
21 -5 3 -10 14 -10 23 0 15 2 15 10 2 7 -11 12 -12 21 -3 9 9 3 25 -30 68
l-43 57 24 26 c12 15 27 30 32 33 4 4 3 16 -3 27 -6 11 -11 30 -11 41 0 11
-17 33 -39 50 -62 50 -74 40 -46 -39 18 -50 11 -66 -18 -47 -28 18 -67 28 -67
17 0 -5 9 -12 20 -15 20 -6 28 -35 10 -35 -5 0 -10 4 -10 9 0 15 -98 33 -190
35 -67 1 -86 -2 -83 -11 7 -18 -42 -17 -57 2 -16 20 -70 46 -81 39 -5 -3 -9 2
-9 10 0 9 -4 16 -10 16 -5 0 -10 5 -10 11 0 5 4 8 9 4 6 -3 15 4 21 15 6 11
30 30 53 41 23 12 45 27 49 32 8 14 -71 87 -94 87 -9 0 -26 -12 -38 -27 -18
-23 -28 -27 -71 -26 -32 0 -54 5 -60 14 -7 12 -9 12 -9 -1 -1 -13 -2 -13 -13
1 -7 8 -24 23 -39 33 -27 17 -29 17 -73 -4 -52 -25 -56 -42 -17 -67 40 -26 47
-35 60 -70 l11 -33 -45 0 c-25 0 -55 5 -67 12 -12 6 -54 11 -94 11 -40 0 -73
3 -73 8 0 5 7 9 15 9 22 0 19 17 -4 23 -13 3 -21 -1 -24 -14 -7 -27 -32 -24
-52 7 -16 24 -19 25 -83 19 -55 -6 -65 -5 -54 6 6 7 12 21 12 30 0 9 7 22 15
29 38 32 -31 42 -75 10 -15 -11 -30 -16 -34 -13 -4 4 -9 -3 -13 -15 -4 -16
-13 -22 -33 -22 -31 0 -50 31 -50 85 0 19 -4 36 -9 39 -10 7 -9 66 2 84 5 7 6
19 3 27 -3 8 2 31 10 50 8 20 12 40 9 46 -4 5 -2 8 2 7 12 -4 102 93 104 112
1 8 0 23 -1 34 -2 17 0 17 28 -3 24 -17 35 -19 56 -11 18 7 24 14 19 26 -4 12
-3 15 6 10 7 -5 11 -17 8 -27 -3 -10 0 -20 7 -22 8 -3 8 -8 -1 -18 -20 -21
-15 -39 11 -39 31 0 36 -9 42 -65 8 -87 54 -119 193 -135 65 -7 79 -6 96 8 11
9 22 18 24 19 2 2 3 35 2 75 -3 96 -31 141 -114 177 -31 14 -60 33 -63 43 -8
25 17 58 41 54 25 -5 29 29 6 56 -25 29 -44 23 -37 -12 3 -18 1 -30 -5 -30 -6
0 -7 5 -4 10 6 10 -23 15 -55 11 -8 -1 -20 -3 -26 -3 -6 -1 -9 -9 -7 -19 3
-11 0 -17 -10 -15 -19 3 -70 36 -80 53 -7 11 -12 11 -23 3 -10 -9 -17 -9 -28
3 -13 13 -11 15 21 20 20 4 46 16 59 28 16 15 38 22 70 24 36 1 51 7 62 23 11
16 20 20 43 15 18 -3 29 -1 29 6 0 6 7 11 15 11 8 0 15 4 15 9 0 5 12 7 27 5
l27 -5 -19 23 c-11 13 -39 44 -62 70 -24 26 -60 73 -80 105 -53 80 -139 188
-171 213 l-27 21 25 -6 c14 -4 40 -9 59 -12z m1106 7 c-22 -5 -44 -4 -49 1 -6
5 10 9 40 8 l49 -1 -40 -8z m-1348 -72 c-3 -8 -6 -5 -6 6 -1 11 2 17 5 13 3
-3 4 -12 1 -19z m0 -80 c-3 -7 -5 -2 -5 12 0 14 2 19 5 13 2 -7 2 -19 0 -25z
m1706 25 c-13 -2 -33 -2 -45 0 -13 2 -3 4 22 4 25 0 35 -2 23 -4z m-124 -32
c-13 -11 -26 -18 -28 -15 -7 7 21 34 36 34 10 0 8 -6 -8 -19z m-39 -26 c0 -8
-7 -15 -15 -15 -8 0 -15 -5 -15 -11 0 -5 -4 -7 -10 -4 -5 3 -10 2 -10 -3 0 -6
-8 -13 -17 -16 -10 -3 -1 10 19 29 42 39 48 42 48 20z m-90 -75 c-20 -13 -33
-13 -25 0 3 6 14 10 23 10 15 0 15 -2 2 -10z m-1473 -142 c-3 -8 -6 -5 -6 6
-1 11 2 17 5 13 3 -3 4 -12 1 -19z m273 12 c0 -13 -20 -13 -40 0 -12 8 -9 10
13 10 15 0 27 -4 27 -10z m1040 6 c0 -2 -8 -10 -17 -17 -16 -13 -17 -12 -4 4
13 16 21 21 21 13z m-995 -16 c8 -13 -5 -13 -25 0 -13 8 -13 10 2 10 9 0 20
-4 23 -10z m-308 -62 c-3 -8 -6 -5 -6 6 -1 11 2 17 5 13 3 -3 4 -12 1 -19z
m1243 7 c-7 -8 -17 -12 -23 -8 -6 4 -3 9 9 14 27 11 28 11 14 -6z m310 -81
l25 -14 -30 6 c-16 4 -43 13 -60 20 l-30 14 35 -6 c19 -4 46 -13 60 -20z m115
-51 c-29 -49 -43 -65 -55 -61 -7 2 -4 12 9 27 12 13 21 28 21 33 0 5 5 6 10 3
6 -3 10 1 10 9 0 9 5 16 11 16 6 0 3 -12 -6 -27z m-1447 -21 c2 -6 -5 -8 -17
-5 -12 3 -21 9 -21 13 0 12 33 5 38 -8z m-64 -18 c24 -9 20 -33 -4 -27 -11 3
-20 12 -20 19 0 16 2 16 24 8z m-107 -36 c-3 -7 -5 -2 -5 12 0 14 2 19 5 13 2
-7 2 -19 0 -25z m323 -28 c0 -5 -9 -10 -21 -10 -11 0 -17 5 -14 10 3 6 13 10
21 10 8 0 14 -4 14 -10z m-453 -292 c-3 -8 -6 -5 -6 6 -1 11 2 17 5 13 3 -3 4
-12 1 -19z m8 -357 c3 -107 2 -191 -1 -188 -3 3 -7 84 -8 179 -2 95 -5 207 -8
248 -6 74 -6 74 3 15 5 -33 12 -147 14 -254z m315 108 c0 -6 -7 -9 -15 -5 -8
3 -15 1 -15 -4 0 -6 -8 -10 -17 -10 -16 1 -16 2 1 15 23 18 46 19 46 4z m245
-69 c-3 -5 -16 -10 -28 -10 -18 0 -19 2 -7 10 20 13 43 13 35 0z m-535 -290
c0 -13 -1 -13 -10 0 -5 8 -10 22 -10 30 0 13 1 13 10 0 5 -8 10 -22 10 -30z
m90 -147 c45 -46 84 -75 128 -94 34 -16 62 -31 62 -33 0 -3 -15 1 -32 8 -18 8
-46 19 -63 25 -53 20 -176 146 -174 180 0 13 2 13 7 -2 4 -10 37 -47 72 -84z
m255 -153 c3 -5 -1 -10 -9 -10 -8 0 -18 5 -21 10 -3 6 1 10 9 10 8 0 18 -4 21
-10z m230 -64 c33 -8 77 -15 98 -16 20 0 37 -5 37 -11 0 -7 -14 -8 -42 -4 -62
9 -201 46 -212 56 -5 4 7 4 25 -1 19 -5 61 -16 94 -24z m258 -33 c-13 -2 -35
-2 -50 0 -16 2 -5 4 22 4 28 0 40 -2 28 -4z m64 -9 c-3 -3 -12 -4 -19 -1 -8 3
-5 6 6 6 11 1 17 -2 13 -5z m176 -1 c-7 -2 -19 -2 -25 0 -7 3 -2 5 12 5 14 0
19 -2 13 -5z m-86 -9 c-3 -3 -12 -4 -19 -1 -8 3 -5 6 6 6 11 1 17 -2 13 -5z"/>
<path d="M913 1753 c9 -2 23 -2 30 0 6 3 -1 5 -18 5 -16 0 -22 -2 -12 -5z"/>
<path d="M1130 1741 c0 -6 4 -12 9 -15 13 -8 42 4 35 15 -7 12 -44 12 -44 0z"/>
<path d="M1226 1715 c7 -17 13 -18 32 -6 11 7 10 10 -3 15 -26 10 -35 7 -29
-9z"/>
<path d="M892 1655 c0 -16 2 -22 5 -12 2 9 2 23 0 30 -3 6 -5 -1 -5 -18z"/>
<path d="M833 1655 c-3 -9 -3 -18 0 -21 9 -9 27 6 27 22 0 19 -19 18 -27 -1z"/>
<path d="M792 1643 c2 -9 9 -18 16 -21 18 -6 15 25 -4 32 -11 4 -14 1 -12 -11z"/>
<path d="M595 1610 c3 -5 8 -10 11 -10 2 0 4 5 4 10 0 6 -5 10 -11 10 -5 0 -7
-4 -4 -10z"/>
<path d="M1950 1310 c8 -5 20 -10 25 -10 6 0 3 5 -5 10 -8 5 -19 10 -25 10 -5
0 -3 -5 5 -10z"/>
<path d="M1429 854 c-11 -14 -9 -15 16 -12 16 1 30 9 33 16 6 18 -33 15 -49
-4z"/>
</g>
</svg>
